<svg width="142" height="148" viewBox="0 0 142 148" fill="none" xmlns="http://www.w3.org/2000/svg">
<path d="M70.6187 2.5C80.9847 2.50011 88.3491 9.06956 88.3491 16.0322C88.3491 22.9949 80.9847 29.5643 70.6187 29.5645C60.2525 29.5645 52.8872 22.995 52.8872 16.0322C52.8872 9.06951 60.2525 2.5 70.6187 2.5Z" stroke="#59B0FE" stroke-width="5"/>
<path d="M5.89836 25.6991C6.13129 21.0031 9.9397 17.2777 14.6397 17.1484L129.392 13.9899C134.363 13.8531 138.502 17.7731 138.637 22.7437L141.746 137.922C141.884 143.054 137.709 147.262 132.576 147.163L9.27576 144.796C4.19908 144.698 0.208058 140.423 0.459598 135.352L5.89836 25.6991Z" fill="url(#paint0_linear_751_409)"/>
<path d="M93.8554 133.267C89.6792 133.267 85.9577 132.543 82.6906 131.094C79.4236 129.616 76.8383 127.443 74.9349 124.574C73.0599 121.676 72.1224 118.068 72.1224 113.75C72.1224 110.114 72.79 107.06 74.1253 104.588C75.4605 102.116 77.2787 100.128 79.5798 98.6222C81.8809 97.1165 84.4946 95.9801 87.4207 95.2131C90.3753 94.446 93.4719 93.9062 96.7105 93.5938C100.517 93.196 103.585 92.8267 105.915 92.4858C108.245 92.1165 109.935 91.5767 110.986 90.8665C112.037 90.1562 112.563 89.1051 112.563 87.7131V87.4574C112.563 84.7585 111.71 82.6705 110.006 81.1932C108.33 79.7159 105.943 78.9773 102.847 78.9773C99.5798 78.9773 96.9804 79.7017 95.0486 81.1506C93.1167 82.571 91.8383 84.3608 91.2133 86.5199L74.4236 85.1562C75.2758 81.179 76.952 77.7415 79.452 74.8438C81.952 71.9176 85.1764 69.6733 89.1253 68.1108C93.1025 66.5199 97.7048 65.7244 102.932 65.7244C106.568 65.7244 110.049 66.1506 113.372 67.0028C116.725 67.8551 119.693 69.1761 122.279 70.9659C124.892 72.7557 126.952 75.0568 128.458 77.8693C129.963 80.6534 130.716 83.9915 130.716 87.8835V132.031H113.5V122.955H112.989C111.938 125 110.532 126.804 108.77 128.366C107.009 129.901 104.892 131.108 102.421 131.989C99.9491 132.841 97.094 133.267 93.8554 133.267ZM99.0542 120.739C101.725 120.739 104.083 120.213 106.128 119.162C108.174 118.082 109.779 116.634 110.943 114.815C112.108 112.997 112.691 110.937 112.691 108.636V101.69C112.122 102.06 111.341 102.401 110.347 102.713C109.381 102.997 108.287 103.267 107.066 103.523C105.844 103.75 104.622 103.963 103.401 104.162C102.179 104.332 101.071 104.489 100.077 104.631C97.9463 104.943 96.0855 105.44 94.4946 106.122C92.9037 106.804 91.6679 107.727 90.7872 108.892C89.9065 110.028 89.4662 111.449 89.4662 113.153C89.4662 115.625 90.3611 117.514 92.1508 118.821C93.969 120.099 96.2702 120.739 99.0542 120.739Z" fill="white"/>
<path d="M61.6488 46.6916L61.0488 52.1516H55.2888C52.3488 61.4516 48.6888 69.3716 44.0088 76.1516C47.9088 81.8516 52.7688 87.0716 58.8888 92.1716L55.4088 96.9716C49.2288 91.9316 44.3088 86.5916 40.3488 80.9516C34.9488 87.4316 28.4688 92.7116 20.4888 97.1516L17.5488 91.9316C25.4688 87.4916 31.9488 82.2116 37.1088 75.9116C32.7888 68.4716 30.0288 60.5516 28.3488 52.1516H22.8888L23.4888 46.6916H39.8088L40.5888 39.0716H46.1088L45.3288 46.6916H61.6488ZM34.1088 52.1516C35.5488 59.1116 37.7088 65.2316 40.7688 70.8116C44.3688 65.3516 47.1288 59.1716 49.2288 52.1516H34.1088Z" fill="white"/>
<defs>
<linearGradient id="paint0_linear_751_409" x1="71" y1="13.7422" x2="71" y2="147.344" gradientUnits="userSpaceOnUse">
<stop stop-color="#59AEFF"/>
<stop offset="1" stop-color="#57BCFA"/>
</linearGradient>
</defs>
</svg>
